<?xml version="1.0" encoding="UTF-8" standalone="no" ?>
<!DOCTYPE svg PUBLIC "-//W3C//DTD SVG 1.1//EN" "http://www.w3.org/Graphics/SVG/1.1/DTD/svg11.dtd">
<svg xmlns="http://www.w3.org/2000/svg" xmlns:xlink="http://www.w3.org/1999/xlink" version="1.1" width="1080" height="1080" viewBox="0 0 1080 1080" xml:space="preserve">
<desc>Created with Fabric.js 5.2.4</desc>
<defs>
</defs>
<rect x="0" y="0" width="100%" height="100%" fill="transparent"></rect>
<g transform="matrix(1 0 0 1 540 540)" id="73c5ef2b-7aa1-4152-99a9-533debe4c16f"  >
<rect style="stroke: none; stroke-width: 1; stroke-dasharray: none; stroke-linecap: butt; stroke-dashoffset: 0; stroke-linejoin: miter; stroke-miterlimit: 4; fill: rgb(255,255,255); fill-rule: nonzero; opacity: 1; visibility: hidden;" vector-effect="non-scaling-stroke"  x="-540" y="-540" rx="0" ry="0" width="1080" height="1080" />
</g>
<g transform="matrix(1 0 0 1 540 540)" id="ecc650a9-0823-4685-b8c4-ef45334476e6"  >
</g>
<g transform="matrix(1 0 0 1 540 540)" id="83f7e150-d379-4c25-a801-098bae8abf3c"  >
<path style="stroke: rgb(0,0,0); stroke-width: 0; stroke-dasharray: none; stroke-linecap: butt; stroke-dashoffset: 0; stroke-linejoin: miter; stroke-miterlimit: 4; fill: rgb(104,124,236); fill-rule: nonzero; opacity: 1;" vector-effect="non-scaling-stroke"  transform=" translate(-432.15, -432.26)" d="M 771 427.9 C 763.4 427.9 760.3 425.9 757.3 424 C 755 422.5 752.39996 420.9 748.6 420.9 C 742.89996 420.9 740.1 426.19998 738.1 430.1 C 737.3 431.6 736.19995 433.7 735.19995 434.7 C 733.2999 430.6 731.2999 418 730.1 410.2 C 727.3 391.90002 726.1 384.30002 720.39996 384.30002 C 714.69995 384.30002 713.3 391.50003 709.99994 412.2 C 709.19995 417.30002 708.0999 424.40002 707.0999 428.6 C 705.99994 426.5 704.0999 423.4 700.2999 423.4 C 696.0999 423.4 694.99994 427.5 692.99994 439.3 C 691.69995 446.9 690.19995 457 688.7999 466.8 C 688.0999 471.69998 687.2999 477.3 686.49994 482.5 C 684.39996 465.7 681.5999 440.6 678.99994 417.3 C 675.99994 389.9 672.7999 361.5 670.0999 339.69998 C 668.5999 327.8 667.3999 319.09998 666.3999 312.9 C 664.8999 303.9 664.1999 299.4 659.8999 299.4 C 655.7999 299.4 654.6999 302.4 651.6999 320.69998 C 649.8999 331.59998 647.9999 346.19998 645.8999 361.59998 C 642.6999 385.39996 638.3999 416.59998 635.3999 428.69998 C 634.5999 426.4 633.7999 423.59998 633.2999 421.49997 C 630.99994 412.99997 628.99994 405.69998 623.19995 405.69998 C 616.99994 405.69998 614.99994 413.99997 612.6 423.59998 C 612.1 425.59998 611.5 428.3 610.8 430.39996 C 610.6 429.99997 610.3 429.59998 610.1 429.29996 C 608.5 426.49997 606.19995 422.59995 602 422.59995 C 599.7 422.59995 597.4 423.59995 594.5 424.79996 C 590.7 426.39996 586 428.49997 580.4 428.49997 L 580.4 428.49997 L 554.9 428.49997 C 553.2 354.3 490.40002 294.69995 415.7 296.69995 C 346.90002 298.59995 286.5 354.19995 284.1 428.09995 L 284.1 428.09995 L 245.90001 428.09995 C 238.3 428.09995 235.20001 426.09995 232.20001 424.19995 C 229.90001 422.69995 227.30002 421.09995 223.50002 421.09995 C 217.80002 421.09995 215.00002 426.39993 213.00002 430.29996 C 212.20001 431.79996 211.10002 433.89996 210.10002 434.89996 C 208.20003 430.79996 206.20003 418.19995 205.00002 410.39996 C 202.20001 392.09998 201.00002 384.49997 195.30002 384.49997 C 189.60002 384.49997 188.20001 391.69998 184.90002 412.39996 C 184.10002 417.49997 183.00003 424.59998 182.00003 428.79996 C 180.90002 426.69995 179.00003 423.59995 175.20003 423.59995 C 170.10002 423.59995 169.30003 427.89993 163.60002 466.99994 C 162.90002 471.89993 162.10002 477.49994 161.30002 482.69995 C 159.20001 465.89996 156.40002 440.79996 153.80002 417.49994 C 150.80002 390.09995 147.60002 361.69995 144.90002 339.89993 C 143.40002 327.99994 142.20003 319.29993 141.20003 313.09995 C 139.70003 304.09995 139.00003 299.59995 134.70003 299.59995 C 130.60002 299.59995 129.50003 302.59995 126.50003 320.89993 C 124.70003 331.79993 122.80003 346.39993 120.70003 361.79993 C 117.50003 385.5999 113.20003 416.79993 110.20003 428.89993 C 109.400024 426.59995 108.60003 423.79993 108.10003 421.69992 C 105.800026 413.19992 103.800026 405.89993 98.00003 405.89993 C 91.80003 405.89993 89.80003 414.19992 87.40003 423.79993 C 86.90003 425.79993 86.30003 428.49994 85.60003 430.5999 C 85.40003 430.19992 85.10003 429.79993 84.90003 429.4999 C 83.30003 426.69992 81.00003 422.7999 76.80003 422.7999 C 74.50003 422.7999 72.200035 423.7999 69.30003 424.9999 C 65.50003 426.5999 60.800034 428.69992 55.200035 428.69992 L 55.200035 428.69992 L 24.9 428.69992 L 24.9 436.5999 L 55.199997 436.5999 C 62.299995 436.5999 68.1 434.0999 72.399994 432.29993 C 73.7 431.69992 75.399994 430.99994 76.399994 430.79993 C 76.899994 431.39993 77.59999 432.69992 78.09999 433.49994 C 79.79999 436.39993 82.09999 440.39993 86.49999 440.39993 C 91.49999 440.39993 92.99999 434.29993 94.99999 425.79993 C 95.69999 422.99994 96.799995 418.29993 97.899994 415.5999 C 98.799995 417.8999 99.799995 421.4999 100.49999 423.8999 C 102.799995 432.3999 104.99999 440.3999 111.19999 440.3999 C 115.49999 440.3999 117.29999 436.8999 121.19999 413.3999 C 123.49999 399.2999 125.99999 380.7999 128.49998 362.9999 C 130.39998 348.8999 132.59999 332.7999 134.49998 321.19992 C 137.69998 343.5999 142.39998 385.49994 145.99998 418.49994 C 148.49998 440.99994 150.79999 462.29993 152.79999 478.09995 C 153.79999 486.59995 154.69998 492.79996 155.29999 497.09995 C 156.4 503.99994 156.9 507.49994 160.79999 507.49994 C 164.9 507.49994 165.79999 503.39993 167.59999 493.09995 C 168.79999 486.39993 170.09999 477.49994 171.4 468.19995 C 173 457.09995 175.09999 442.89996 176.7 435.19995 C 178 437.09995 180 438.99994 183.3 438.99994 C 188.6 438.99994 189.7 433.29993 192.8 413.59995 C 193.5 409.19995 194.40001 403.59995 195.3 399.09995 C 196 402.99994 196.8 407.69995 197.40001 411.59995 C 200.70001 432.99994 202.6 443.29996 209.40001 443.29996 C 215.20001 443.29996 218.00002 437.89996 220.1 433.99997 C 221.1 432.09998 222.70001 429.09998 223.6 429.09998 C 225.1 429.09998 226 429.69998 228.1 430.99997 C 231.5 433.19998 236.1 436.19998 246.1 436.19998 L 246.1 436.19998 L 284 436.19998 C 284 436.59998 284 436.99997 284 437.4 C 286.3 508.2 346.4 570.3 424 567.8 C 494.4 565.6 553 508.3 554.9 436.5 L 554.9 436.5 L 580.4 436.5 C 587.5 436.5 593.30005 434 597.60004 432.2 C 598.9 431.6 600.7 430.90002 601.60004 430.7 C 602.10004 431.30002 602.80005 432.6 603.30005 433.40002 C 605.00006 436.30002 607.30005 440.30002 611.7001 440.30002 C 616.7001 440.30002 618.2001 434.2 620.2001 425.7 C 620.9001 422.90002 622.00006 418.2 623.1001 415.5 C 624.0001 417.8 625.0001 421.4 625.7001 423.8 C 628.00006 432.3 630.2001 440.3 636.4001 440.3 C 640.7001 440.3 642.50006 436.8 646.4001 413.3 C 648.7001 399.19998 651.2001 380.69998 653.7001 362.9 C 655.6001 348.8 657.80005 332.69998 659.7001 321.1 C 662.9001 343.5 667.6001 385.40002 671.2001 418.40002 C 673.7001 440.90002 676.00006 462.2 678.00006 478.00003 C 679.00006 486.50003 679.9001 492.70004 680.50006 497.00003 C 681.60004 503.90002 682.10004 507.40002 686.00006 507.40002 C 690.10004 507.40002 691.00006 503.30002 692.80005 493.00003 C 694.00006 486.30002 695.30005 477.40002 696.60004 468.10004 C 698.2 457.00003 700.30005 442.80005 701.9 435.10004 C 703.2 437.00003 705.2 438.90002 708.5 438.90002 C 714 438.90002 715.2 431.50003 718 413.50003 C 718.7 409.10004 719.6 403.50003 720.5 399.00003 C 721.2 402.90002 722 407.60004 722.6 411.50003 C 725.89996 432.90002 727.8 443.20004 734.6 443.20004 C 740.39996 443.20004 743.19995 437.80005 745.3 433.90005 C 746.3 432.00006 747.89996 429.00006 748.8 429.00006 C 750.3 429.00006 751.2 429.60007 753.3 430.90005 C 756.7 433.10007 761.3 436.10007 771.3 436.10007 L 771.3 436.10007 L 839.39996 436.10007 L 839.39996 428.20007 L 771 428.20007 L 771 427.9 z M 463.1 313.5 C 463.2 313.4 463.30002 313.3 463.4 313.4 C 485 322 503.19998 334.4 517.3 352.6 C 517.5 352.9 517.5 353.30002 517.3 353.6 C 517.1 353.9 516.7 354 516.39996 354 C 514.89996 353.6 513.3 353.2 511.79996 352.7 C 510.99997 352.40002 510.29996 351.80002 509.69995 351.2 C 502.29996 342.30002 480.59995 325.30002 463.09995 313.90002 C 463.1 313.8 463.1 313.7 463.1 313.5 z M 425.3 334.9 C 432.9 332 440.5 329 448.19998 326.3 C 451.8 325 455.59998 324.09998 459.4 323.4 C 460.69998 323.19998 462.3 324.1 463.6 324.9 C 476.4 332.8 488.5 341.69998 499 352.6 C 500.3 353.9 501.5 355.2 502.6 356.6 C 503.4 357.6 504 358.80002 504.30002 360 C 505.90002 366.1 506.80002 372.3 507.30002 379.5 C 507.40002 381.2 507.40002 382.9 507.1 384.5 C 506.80002 386.1 506.5 388 506.2 389.8 C 506 391.3 505 392 503.6 392.3 C 496.80002 394.09998 490 395.9 483.2 397.69998 C 477.7 399.19998 472.30002 400.69998 466.80002 402.19998 C 466.30002 402.3 465.6 401.99997 465.2 401.69998 C 456.90002 396.3 448.6 390.8 440.2 385.3 C 435.40002 382.19998 430.6 379 425.90002 375.8 C 425.30002 375.4 424.80002 374.59998 424.80002 374 C 424.50003 361.6 424.40002 349.2 424.1 336.8 C 424 335.8 424.3 335.3 425.3 334.9 z M 384.9 325.2 C 390.5 326.5 396.1 327.80002 401.6 329.5 C 405.80002 330.8 409.80002 332.5 413.80002 334.2 C 414.40002 334.5 415.00003 335.6 415.00003 336.40002 C 415.10004 342.7 415.50003 367.60004 415.60004 373.80002 C 415.60004 375.1 415.30005 375.90002 414.20004 376.6 C 401.60004 384.9 389.10004 393.2 376.60004 401.6 C 374.60004 402.9 372.80005 401.80002 371.00003 401.4 C 364.00003 399.69998 357.10004 397.8 350.20004 395.9 C 345.90005 394.8 341.60004 393.6 337.40005 392.5 C 335.80005 392.1 335.40005 390.7 335.10007 389.4 C 333.80008 382.9 333.70007 376.3 334.70007 369.8 C 335.4001 365.4 336.20007 361.09998 337.10007 356.69998 C 337.30008 355.9 337.70007 354.99997 338.20007 354.4 C 345.50006 346.6 353.30008 339.4 362.30008 333.6 C 367.0001 330.6 372.0001 328.1 376.9001 325.30002 C 379.6 323.6 382.3 324.6 384.9 325.2 z M 321.9 352.1 C 336.69998 333.7 355.3 320.5 377.8 312.6 C 377.9 312.5 378.09998 312.6 378.19998 312.7 C 378.3 312.80002 378.3 313 378.3 313.1 C 376.9 316 374 316.7 371.5 317.80002 C 359.6 323.50003 338.8 340.40002 331.2 348.50003 C 329.7 349.80002 327.80002 350.70004 326 351.60004 C 325 352.10004 323.9 352.60004 322.9 353.10004 C 322.6 353.20004 322.19998 353.20004 322 352.90002 C 321.7 352.7 321.7 352.4 321.9 352.1 z M 318.9 492.4 C 317.5 495.1 316.6 500.1 316.19998 502.8 C 316.19998 503.09998 315.9 503.3 315.69998 503.4 C 315.4 503.5 315.09998 503.4 314.9 503.1 C 299.6 481.5 291.4 451.2 293.19998 428.3 C 293.19998 428 293.4 427.8 293.59998 427.69998 C 293.89996 427.59998 294.09998 427.59998 294.3 427.8 C 296.59998 429.8 298.9 431.8 301 433.9 C 301.7 434.6 301.8 436.1 301.8 437.3 C 302.19998 444.8 303.5 452.19998 305.19998 459.5 C 307.69998 470.8 311.8 481.4 318.49997 490.9 C 318.9 491.2 319.1 492 318.9 492.4 z M 363.3 496.9 C 358.59998 496.1 354.3 495.4 350 494.4 C 344.2 493 338.5 491.3 332.7 489.8 C 328.30002 488.69998 325.80002 485.69998 323.6 482.09998 C 320 476.09998 317.2 469.8 315.4 463.09998 C 313.8 457.19998 313 451.09998 311.9 445.09998 C 311.5 442.89996 311.5 440.59998 311.1 438.39996 C 310.30002 434.69995 311.1 431.49997 313.4 428.39996 C 319.19998 420.49997 324.69998 412.49997 330.4 404.49997 C 331.1 403.59998 331.9 402.59998 332.8 401.99997 C 333.59998 401.49997 334.8 400.89996 335.59998 401.09998 C 340.69998 402.3 345.8 403.8 350.99997 405.19998 C 356.19998 406.59998 361.49997 407.99997 366.69998 409.4 C 368.3 409.8 369.9 410.19998 371.4 410.6 C 371.8 410.7 372.3 411.1 372.4 411.5 C 373 413.1 373.6 414.8 374.1 416.4 C 376 423.19998 377.80002 430 379.7 436.8 C 381.30002 442.4 382.90002 448.09998 384.5 453.69998 C 385 455.59998 385.4 457.49997 386.1 459.3 C 386.6 460.5 386.30002 461.3 385.7 462.3 C 378.80002 473.4 372 484.59998 365.1 495.69998 C 364.8 496.4 363.8 496.6 363.3 496.9 z M 455.9 553.3 C 431.6 560 407.3 560.6 382.7 553 C 382.30002 552.9 382.1 552.6 382 552.2 C 382 551.8 382.2 551.5 382.5 551.3 C 383.7 550.7 384.8 550.2 385.9 549.6 C 386.9 549.1 388 548.8 388.9 548.19995 C 391.9 545.99994 395.3 547.1 398.5 547.19995 C 407 547.49994 415.5 548.19995 424 548.19995 C 430.3 548.19995 436.6 547.39996 442.9 547.1 C 444.69998 547 446.6 547.5 448.3 548.1 C 450.4 548.89996 453.9 550.5 456 551.6 C 456.3 551.8 456.5 552.1 456.5 552.5 C 456.5 552.9 456.2 553.2 455.9 553.3 z M 469.4 504.1 C 465 511.80002 459.3 518.6 453.8 525.5 C 450.69998 529.3 447.59998 533.1 444.3 536.8 C 443.8 537.39996 442.8 537.89996 442 538 C 429.2 540 416.4 539.5 403.6 538.6 C 400.9 538.39996 398.1 538.19995 395.4 537.89996 C 394.6 537.8 393.69998 537.39996 393.3 536.8 C 385.9 526.89996 379.4 516.5 373.4 505.69998 C 371.5 502.3 373.1 500.09998 374.69998 497.59998 C 379.9 489.09998 385.09998 480.59998 390.3 472.09998 C 391.4 470.3 392.4 468.59998 393.69998 466.89996 C 394.09998 466.29996 395.09998 465.99997 395.9 465.99997 C 404.1 465.89996 412.3 465.99997 420.5 465.99997 C 420.5 465.99997 420.5 465.99997 420.5 465.89996 C 428.7 465.89996 436.9 465.89996 445.1 465.99997 C 445.9 465.99997 447 466.49997 447.4 467.09998 C 454.8 478.3 462 489.49997 469.4 500.69998 C 470.1 501.9 470.2 502.8 469.4 504.1 z M 513.8 485.3 C 511.69998 487.9 508.8 488.5 506 489.4 C 499.7 491.4 493.2 493.19998 486.8 494.9 C 484.19998 495.6 481.4 496.1 478.69998 496.5 C 478.09998 496.6 477.09998 496.2 476.8 495.6 C 472.3 488.9 467.9 482.1 463.5 475.30002 C 460.7 471.00003 458 466.7 455.1 462.50003 C 454.30002 461.30002 454.30002 460.30002 454.7 459.20004 C 457.5 451.20004 460.6 443.30005 463.1 435.20004 C 465.5 427.60004 467.2 419.80005 469.30002 412.10004 C 469.40002 411.50003 470.00003 410.80005 470.50003 410.70004 C 477.60004 408.70004 484.80002 406.80005 492.00003 404.90005 C 496.50003 403.70004 500.90002 402.50006 505.40002 401.30005 C 506.50003 401.00006 507.30002 401.00006 508.00003 402.00006 C 515.30005 411.80005 522.7 421.70007 530.10004 431.40005 C 531.50006 433.30005 531.00006 435.30005 530.9 437.00006 C 530.4 445.10007 529.2 452.60007 526.9 460.00006 C 523.8 469.1 519.8 477.7 513.8 485.3 z M 525.3 501.7 C 525 502.1 524.5 502.2 524 502.1 C 523.5 502 523.2 501.6 523.1 501.1 C 522.5 497.80002 521.89996 494.4 521.39996 490.9 C 521.3 490.4 521.6 489.8 521.89996 489.4 C 525.89996 484.4 529.1 478.9 531.39996 473 C 532.89996 469.2 534.3 465.3 535.49994 461.4 C 538.0999 452.9 539.2999 444.3 539.7999 435.4 C 539.7999 434.9 539.99994 434.3 540.2999 434.1 C 541.8999 432.9 543.49994 431.80002 545.0999 430.7 C 545.1999 430.6 545.3999 430.6 545.49994 430.7 C 545.5999 430.80002 545.69995 430.90002 545.7999 431 C 549 445.7 536.2 488.6 525.3 501.7 z" stroke-linecap="round" />
</g>
<g transform="matrix(1 0 0 1 540 327.51)" style="" id="6e4984b1-ccb0-4cab-933d-de130045b59b"  >
		<text xml:space="preserve" font-family="Raleway" font-size="128" font-style="normal" font-weight="900" style="stroke: none; stroke-width: 1; stroke-dasharray: none; stroke-linecap: butt; stroke-dashoffset: 0; stroke-linejoin: miter; stroke-miterlimit: 4; fill: rgb(104,124,236); fill-rule: nonzero; opacity: 1; white-space: pre;" ><tspan x="-373.31" y="40.21" >f</tspan><tspan x="-296.26" y="40.21" >o</tspan><tspan x="-192.06" y="40.21" >o</tspan><tspan x="-98.62" y="40.21" >T</tspan><tspan x="6.85" y="40.21" >b</tspan><tspan x="115.26" y="40.21" >l</tspan><tspan x="186.3" y="40.21" >o</tspan><tspan x="290.5" y="40.21" >g</tspan></text>
</g>
<g transform="matrix(NaN NaN NaN NaN 0 0)"  >
<g style=""   >
</g>
</g>
<g transform="matrix(NaN NaN NaN NaN 0 0)"  >
<g style=""   >
</g>
</g>
<g transform="matrix(NaN NaN NaN NaN 0 0)"  >
<g style=""   >
</g>
</g>
<g transform="matrix(NaN NaN NaN NaN 0 0)"  >
<g style=""   >
</g>
</g>
<g transform="matrix(NaN NaN NaN NaN 0 0)"  >
<g style=""   >
</g>
</g>
<g transform="matrix(NaN NaN NaN NaN 0 0)"  >
<path style="stroke: rgb(0,0,0); stroke-width: 1.5; stroke-dasharray: none; stroke-linecap: round; stroke-dashoffset: 0; stroke-linejoin: round; stroke-miterlimit: 4; fill: none; fill-rule: nonzero; opacity: 1;"  transform=" translate(-12, -12.5)" d="M 8 17.929 L 6 17.929 C 4.895 17.929 4 17.017 4 15.892999999999999 L 4 5.036 C 4 3.91 4.895 3 6 3 L 14 3 C 15.105 3 16 3.911 16 5.036 L 16 6.901999999999999 M 10 7.071999999999999 L 18 7.071999999999999 C 19.105 7.071999999999999 20 7.981999999999999 20 9.107 L 20 19.964 C 20 21.09 19.105 22 18 22 L 10 22 C 8.895 22 8 21.089 8 19.964 L 8 9.107 C 8 7.982999999999999 8.895 7.071 10 7.071 z" stroke-linecap="round" />
</g>
<g transform="matrix(NaN NaN NaN NaN 0 0)"  >
<g style=""   >
</g>
</g>
<g transform="matrix(NaN NaN NaN NaN 0 0)"  >
<path style="stroke: rgb(0,0,0); stroke-width: 1.5; stroke-dasharray: none; stroke-linecap: round; stroke-dashoffset: 0; stroke-linejoin: round; stroke-miterlimit: 4; fill: none; fill-rule: nonzero; opacity: 1;"  transform=" translate(-12, -12.5)" d="M 8 17.929 L 6 17.929 C 4.895 17.929 4 17.017 4 15.892999999999999 L 4 5.036 C 4 3.91 4.895 3 6 3 L 14 3 C 15.105 3 16 3.911 16 5.036 L 16 6.901999999999999 M 10 7.071999999999999 L 18 7.071999999999999 C 19.105 7.071999999999999 20 7.981999999999999 20 9.107 L 20 19.964 C 20 21.09 19.105 22 18 22 L 10 22 C 8.895 22 8 21.089 8 19.964 L 8 9.107 C 8 7.982999999999999 8.895 7.071 10 7.071 z" stroke-linecap="round" />
</g>
</svg>